# xmcd
#
# Track frame offsets: 
#        150
#        19200
#        37950
#        54075
#        71325
#        90000
#        106350
#        123600
#        141675
#        162000
#        178875
#        198450
#        216600
#        236025
#        265575
#
# Disc length: 3927 seconds
#
# Revision: 0
# Processed by: cddbd v1.5.2PL0 Copyright (c) Steve Scherf et al.
# Submitted via: ExactAudioCopy v1.0b3
#
DISCID=d40f550f
DTITLE=Acting Lovers - Get It While It's Hot
DYEAR=1900
DGENRE=
TTITLE0=Flying Away (Radio Edit)
TTITLE1=In Light And Darkness (Album Version)
TTITLE2=Crazy About You (Radio Edit)
TTITLE3=I Wanna Ride It (Set Me Free)
TTITLE4=My Angel Is You
TTITLE5=Phil (Radio Edit)
TTITLE6=Tonight (Radio Edit)
TTITLE7=Summer Of Love
TTITLE8=Gotta Get It Right
TTITLE9=What You Get Is What You See (Radio Edit)
TTITLE10=Disqo Dangerous
TTITLE11=Like A Flash
TTITLE12=In Light And Darkness (Cookiedealerz Remix Album Edit)
TTITLE13=Flying Away (Extended Version)
TTITLE14=Phil (Extended Version)
EXTD=
EXTT0=
EXTT1=
EXTT2=
EXTT3=
EXTT4=
EXTT5=
EXTT6=
EXTT7=
EXTT8=
EXTT9=
EXTT10=
EXTT11=
EXTT12=
EXTT13=
EXTT14=
PLAYORDER=
